<?xml version="1.0" encoding="utf-8"?>
<!-- Generator: Adobe Illustrator 19.0.0, SVG Export Plug-In . SVG Version: 6.00 Build 0)  -->
<svg version="1.1" id="Layer_1" xmlns="http://www.w3.org/2000/svg" xmlns:xlink="http://www.w3.org/1999/xlink" x="0px" y="0px"
	 viewBox="0 0 16.6 16.8" style="enable-background:new 0 0 16.6 16.8;" xml:space="preserve">
<style type="text/css">
	.st0{fill:#AAAAAA;}
</style>
<path id="XMLID_82_" class="st0" d="M9,8.3V4.8H7.6v4.8h4.1V8.3H9z M0.6,5.3C-0.3,4-0.2,2.2,1,1c1.2-1.2,3-1.3,4.3-0.4
	C3.1,1.4,1.4,3.1,0.6,5.3z M13.3,13.1c1.2-1.2,1.9-2.9,1.9-4.8c0-3.8-3.1-6.9-6.9-6.9c-3.8,0-6.9,3.1-6.9,6.9c0,1.9,0.7,3.5,1.9,4.8
	l-1.2,3.1c-0.1,0.3,0.2,0.5,0.4,0.4L5,14.4c1,0.5,2.1,0.8,3.3,0.8c1.2,0,2.3-0.3,3.3-0.8l2.5,2.2c0.2,0.2,0.6-0.1,0.4-0.4L13.3,13.1
	z M8.3,13.8c-3.1,0-5.5-2.5-5.5-5.5s2.5-5.5,5.5-5.5s5.5,2.5,5.5,5.5S11.3,13.8,8.3,13.8z M15.6,1c-1.2-1.2-3-1.3-4.3-0.5
	c2.2,0.8,3.9,2.6,4.8,4.8C16.9,4,16.8,2.2,15.6,1z"/>
</svg>
