<?xml version="1.0" encoding="utf-8"?>
<!-- Generator: Adobe Illustrator 19.0.0, SVG Export Plug-In . SVG Version: 6.00 Build 0)  -->
<svg version="1.1" id="Layer_1" xmlns="http://www.w3.org/2000/svg" xmlns:xlink="http://www.w3.org/1999/xlink" x="0px" y="0px"
	 viewBox="0 0 217.8 97.1" style="enable-background:new 0 0 217.8 97.1;" xml:space="preserve">
<style type="text/css">
	.st0{fill:#FFFFFF;}
</style>
<g id="XMLID_2_">
	<g id="XMLID_21_">
		<path id="XMLID_83_" class="st0" d="M7,94.3c-0.4,1.7-1.5,2.7-3.3,2.7c-2.1,0-3.2-1.2-3.2-3.3c0-2.4,1.6-4.6,4.1-4.6
			c1.6,0,2.9,0.9,2.9,2.6h-1c0-1.2-0.8-1.8-1.9-1.8c-2.1,0-3.1,1.9-3.1,3.8c0,1.5,0.7,2.5,2.2,2.5c1.2,0,2-0.7,2.3-1.9H7z"/>
		<path id="XMLID_81_" class="st0" d="M9.2,89.3h0.9l-1.6,7.6H7.6L9.2,89.3z"/>
		<path id="XMLID_78_" class="st0" d="M11.3,91.4h0.9l-1.1,5.5h-0.9L11.3,91.4z M12.5,90.4h-0.9l0.2-1.1h0.9L12.5,90.4z"/>
		<path id="XMLID_76_" class="st0" d="M13.9,91.4h0.9l-0.2,0.8h0c0.5-0.6,1.2-1,1.9-1c1,0,1.5,0.4,1.5,1.4c0,0.2-0.1,0.6-0.2,1.1
			l-0.7,3.1h-0.9l0.7-3.2c0-0.2,0.1-0.7,0.1-0.8c0-0.5-0.4-0.8-1-0.8c-0.5,0-1,0.3-1.4,0.6c-0.3,0.3-0.5,0.7-0.6,1.1l-0.6,3h-0.9
			L13.9,91.4z"/>
		<path id="XMLID_73_" class="st0" d="M20.1,91.4H21l-1.1,5.5h-0.9L20.1,91.4z M21.2,90.4h-0.9l0.2-1.1h0.9L21.2,90.4z"/>
		<path id="XMLID_71_" class="st0" d="M25.9,93.2c0-0.7-0.5-1.1-1.2-1.1c-1.4,0-2.1,1.4-2.1,2.6c0,0.8,0.3,1.6,1.4,1.6
			c0.8,0,1.3-0.5,1.6-1.1h0.9C26.2,96.3,25.2,97,24,97c-1.5,0-2.3-0.9-2.3-2.4c0-1.7,1.1-3.4,3-3.4c1.2,0,2,0.6,2.1,1.9H25.9z"/>
		<path id="XMLID_68_" class="st0" d="M28,93.1c0.2-1.2,1.2-1.8,2.4-1.8c1.1,0,2,0.3,2,1.4c0,0.3-0.1,0.7-0.2,1l-0.3,1.5
			c0,0.2-0.1,0.5-0.1,0.8c0,0.3,0.1,0.3,0.3,0.3c0.1,0,0.2,0,0.3-0.1l-0.1,0.7C32,97,31.8,97,31.6,97c-0.5,0-0.8-0.3-0.7-0.8l0,0
			C30.5,96.7,30,97,29.1,97c-0.9,0-1.7-0.4-1.7-1.5c0-1.6,1.6-1.7,2.8-1.8c1-0.1,1.4-0.1,1.4-0.9c0-0.6-0.6-0.7-1.1-0.7
			c-0.7,0-1.4,0.3-1.5,1H28z M29.3,96.2c0.7,0,1.2-0.2,1.5-0.7c0.3-0.4,0.3-0.9,0.5-1.4h0c-0.4,0.2-1.1,0.3-1.8,0.4
			c-0.6,0.1-1.2,0.3-1.2,1C28.3,96,28.8,96.2,29.3,96.2z"/>
		<path id="XMLID_66_" class="st0" d="M34.8,89.3h0.9l-1.6,7.6h-0.9L34.8,89.3z"/>
		<path id="XMLID_63_" class="st0" d="M40.7,89.3h3c1.4,0,2.2,0.7,2.2,2.1c0,0.9-0.7,2.4-2.9,2.4h-2.2l-0.7,3.1h-1L40.7,89.3z
			 M41,93h2.3c1.1,0,1.7-0.6,1.7-1.5c0-0.9-0.6-1.2-1.2-1.2h-2.1L41,93z"/>
		<path id="XMLID_61_" class="st0" d="M47.4,89.3h0.9l-1.6,7.6h-0.9L47.4,89.3z"/>
		<path id="XMLID_58_" class="st0" d="M49,93.1c0.2-1.2,1.2-1.8,2.4-1.8c1.1,0,2,0.3,2,1.4c0,0.3-0.1,0.7-0.2,1l-0.3,1.5
			c0,0.2-0.1,0.5-0.1,0.8c0,0.3,0.1,0.3,0.3,0.3c0.1,0,0.2,0,0.3-0.1l-0.1,0.7C53,97,52.8,97,52.6,97c-0.5,0-0.8-0.3-0.7-0.8l0,0
			C51.5,96.7,51,97,50,97c-0.9,0-1.7-0.4-1.7-1.5c0-1.6,1.6-1.7,2.8-1.8c1-0.1,1.4-0.1,1.4-0.9c0-0.6-0.6-0.7-1.1-0.7
			c-0.7,0-1.4,0.3-1.5,1H49z M50.3,96.2c0.7,0,1.2-0.2,1.5-0.7c0.3-0.4,0.3-0.9,0.5-1.4h0c-0.4,0.2-1.1,0.3-1.8,0.4
			c-0.6,0.1-1.2,0.3-1.2,1C49.3,96,49.7,96.2,50.3,96.2z"/>
		<path id="XMLID_56_" class="st0" d="M58.4,93.2c0-0.7-0.5-1.1-1.2-1.1c-1.4,0-2.1,1.4-2.1,2.6c0,0.8,0.3,1.6,1.4,1.6
			c0.8,0,1.3-0.5,1.6-1.1H59c-0.3,1.2-1.2,1.9-2.5,1.9c-1.5,0-2.3-0.9-2.3-2.4c0-1.7,1.1-3.4,3-3.4c1.2,0,2,0.6,2.1,1.9H58.4z"/>
		<path id="XMLID_53_" class="st0" d="M61,94.4c0,0.2,0,0.3,0,0.5c0,0.8,0.7,1.3,1.4,1.3c0.8,0,1.3-0.4,1.6-1h0.9
			c-0.3,1.2-1.3,1.8-2.5,1.8c-1.8,0-2.3-1.2-2.3-2.2c0-2.1,1.3-3.5,2.8-3.5c1.6,0,2.3,0.9,2.3,2.4c0,0.3-0.1,0.6-0.1,0.7H61z
			 M64.3,93.6c0.1-0.8-0.3-1.5-1.3-1.5c-1.1,0-1.6,0.7-1.9,1.5H64.3z"/>
		<path id="XMLID_51_" class="st0" d="M67.1,91.4h0.8l-0.2,0.8l0,0c0.5-0.6,1.2-1,1.9-1c0.7,0,1.2,0.3,1.4,1c0.4-0.6,1.1-1,1.9-1
			c0.8,0,1.5,0.3,1.5,1.2c0,0.3-0.1,0.8-0.2,1.1l-0.7,3.3h-0.9l0.8-3.5c0-0.2,0.1-0.4,0.1-0.6c0-0.4-0.4-0.7-0.8-0.7
			c-0.5,0-1.1,0.4-1.4,0.8c-0.3,0.3-0.4,0.8-0.5,1.2l-0.6,2.8h-0.9l0.7-3.1c0.1-0.4,0.2-0.8,0.2-1c0-0.5-0.3-0.7-0.8-0.7
			c-0.5,0-1,0.3-1.3,0.7c-0.4,0.4-0.5,0.7-0.6,1.2l-0.6,2.9h-0.9L67.1,91.4z"/>
		<path id="XMLID_48_" class="st0" d="M76.3,94.4c0,0.2,0,0.3,0,0.5c0,0.8,0.7,1.3,1.4,1.3c0.8,0,1.3-0.4,1.6-1h0.9
			c-0.3,1.2-1.3,1.8-2.5,1.8c-1.8,0-2.3-1.2-2.3-2.2c0-2.1,1.3-3.5,2.8-3.5c1.6,0,2.3,0.9,2.3,2.4c0,0.3-0.1,0.6-0.1,0.7H76.3z
			 M79.6,93.6c0.1-0.8-0.3-1.5-1.3-1.5c-1.1,0-1.6,0.7-1.9,1.5H79.6z"/>
		<path id="XMLID_46_" class="st0" d="M82.3,91.4h0.9L83,92.3h0c0.5-0.6,1.2-1,1.9-1c1,0,1.5,0.4,1.5,1.4c0,0.2-0.1,0.6-0.2,1.1
			l-0.7,3.1h-0.9l0.7-3.2c0-0.2,0.1-0.7,0.1-0.8c0-0.5-0.4-0.8-1-0.8c-0.5,0-1,0.3-1.4,0.6c-0.3,0.3-0.5,0.7-0.6,1.1l-0.6,3h-0.9
			L82.3,91.4z"/>
		<path id="XMLID_44_" class="st0" d="M89.6,91.4h1.1l-0.2,0.8h-1.1l-0.7,3.2c0,0.1,0,0.2,0,0.4c0,0.3,0.3,0.4,0.5,0.4
			c0.2,0,0.3,0,0.5-0.1l-0.2,0.8c-0.2,0-0.4,0.1-0.6,0.1c-0.7,0-1.2-0.2-1.2-0.9c0-0.2,0-0.3,0.1-0.5l0.7-3.4h-0.9l0.2-0.8h0.9
			l0.3-1.6h0.9L89.6,91.4z"/>
		<path id="XMLID_42_" class="st0" d="M94.6,93c0-0.6-0.5-0.9-1.1-0.9c-0.5,0-1.2,0.1-1.2,0.7c0,0.5,0.7,0.7,1.4,1
			c0.7,0.3,1.4,0.7,1.4,1.5c0,1.2-1.2,1.7-2.2,1.7c-1.2,0-2.2-0.5-2.2-1.9h0.9c0,0.8,0.6,1.1,1.4,1.1c0.6,0,1.2-0.2,1.2-0.8
			c0-0.5-0.7-0.7-1.4-1c-0.7-0.3-1.4-0.7-1.4-1.5c0-1,1-1.6,2-1.6c1,0,2.1,0.5,2.1,1.7H94.6z"/>
		<path id="XMLID_40_" class="st0" d="M101.1,89.3h1.1l2.7,6.3h0l1.3-6.3h1l-1.6,7.6h-1.1l-2.7-6.2h0l-1.3,6.2h-1L101.1,89.3z"/>
		<path id="XMLID_37_" class="st0" d="M110.3,91.3c1.5,0,2.3,0.8,2.3,2.3c0,1.8-1.1,3.5-3,3.5c-1.4,0-2.3-1-2.3-2.3
			C107.2,92.9,108.4,91.3,110.3,91.3z M109.6,96.2c1.3,0,2-1.5,2-2.6c0-0.9-0.5-1.5-1.4-1.5c-1.4,0-2.1,1.5-2.1,2.6
			C108.1,95.6,108.7,96.2,109.6,96.2z"/>
		<path id="XMLID_35_" class="st0" d="M114.5,91.4h0.8l-0.3,1.2h0c0.4-0.8,1.1-1.3,2-1.3c0.1,0,0.2,0,0.3,0l-0.2,1
			c-0.1,0-0.2,0-0.3,0c-0.2,0-0.3,0-0.5,0.1c-0.5,0.1-0.9,0.5-1.2,0.9c-0.2,0.3-0.4,0.9-0.5,1.3l-0.5,2.4h-0.9L114.5,91.4z"/>
		<path id="XMLID_33_" class="st0" d="M119.8,91.4h1.1l-0.2,0.8h-1.1l-0.7,3.2c0,0.1,0,0.2,0,0.4c0,0.3,0.3,0.4,0.5,0.4
			c0.2,0,0.3,0,0.5-0.1l-0.2,0.8c-0.2,0-0.4,0.1-0.6,0.1c-0.7,0-1.2-0.2-1.2-0.9c0-0.2,0-0.3,0.1-0.5l0.7-3.4h-0.9l0.2-0.8h0.9
			l0.3-1.6h0.9L119.8,91.4z"/>
		<path id="XMLID_31_" class="st0" d="M122.5,89.3h0.9l-0.6,2.9l0,0c0.5-0.6,1.2-1,1.9-1c1,0,1.5,0.4,1.5,1.4c0,0.2-0.1,0.6-0.2,1.1
			l-0.7,3.1h-0.9l0.7-3.2c0-0.2,0.1-0.7,0.1-0.8c0-0.5-0.4-0.8-1-0.8c-0.5,0-1,0.3-1.4,0.6c-0.3,0.3-0.5,0.7-0.6,1.1l-0.6,3h-0.9
			L122.5,89.3z"/>
		<path id="XMLID_29_" class="st0" d="M132.2,96.9h-1l-0.3-4.3h0l-2,4.3h-1l-0.6-5.5h1l0.3,4.3h0l2-4.3h1l0.3,4.3h0l2.1-4.3h1
			L132.2,96.9z"/>
		<path id="XMLID_26_" class="st0" d="M136.1,94.4c0,0.2,0,0.3,0,0.5c0,0.8,0.7,1.3,1.4,1.3c0.8,0,1.3-0.4,1.6-1h0.9
			c-0.3,1.2-1.3,1.8-2.5,1.8c-1.8,0-2.3-1.2-2.3-2.2c0-2.1,1.3-3.5,2.8-3.5c1.6,0,2.3,0.9,2.3,2.4c0,0.3-0.1,0.6-0.1,0.7H136.1z
			 M139.4,93.6c0.1-0.8-0.3-1.5-1.3-1.5c-1.1,0-1.6,0.7-1.9,1.5H139.4z"/>
		<path id="XMLID_24_" class="st0" d="M144.8,93c0-0.6-0.5-0.9-1.1-0.9c-0.6,0-1.2,0.1-1.2,0.7c0,0.5,0.7,0.7,1.4,1
			c0.7,0.3,1.4,0.7,1.4,1.5c0,1.2-1.2,1.7-2.2,1.7c-1.2,0-2.2-0.5-2.2-1.9h0.9c0,0.8,0.6,1.1,1.4,1.1c0.6,0,1.2-0.2,1.2-0.8
			c0-0.5-0.7-0.7-1.4-1c-0.7-0.3-1.4-0.7-1.4-1.5c0-1,1-1.6,2-1.6c1,0,2.1,0.5,2.1,1.7H144.8z"/>
		<path id="XMLID_22_" class="st0" d="M148.7,91.4h1.1l-0.2,0.8h-1.1l-0.7,3.2c0,0.1,0,0.2,0,0.4c0,0.3,0.3,0.4,0.5,0.4
			c0.2,0,0.3,0,0.5-0.1l-0.2,0.8c-0.2,0-0.4,0.1-0.6,0.1c-0.7,0-1.2-0.2-1.2-0.9c0-0.2,0-0.3,0.1-0.5l0.7-3.4h-0.9l0.2-0.8h0.9
			l0.3-1.6h0.9L148.7,91.4z"/>
	</g>
	<g id="XMLID_15_">
		<path id="XMLID_19_" class="st0" d="M38.6,55.9c-1.9-0.7-4.2-1-7-1c-3.4,0-6.3,0.6-8.6,1.7c-2.4,1.1-4.3,2.5-5.7,4.3
			c-1.5,1.7-2.5,3.6-3.2,5.7c-0.7,2.1-1,4.1-1,6.1c0,3,1.1,5.4,3.4,7.2c2.3,1.8,5.6,2.7,10.1,2.7c2.2,0,4.3-0.2,6.3-0.7
			c2-0.4,3.9-1.1,5.6-2.1L39,80c-0.5,0.7-0.9,1.3-1.3,1.9c-0.4,0.6-0.8,1.2-1.2,1.9c-1.5,0.4-2.9,0.7-4.5,0.8
			c-1.5,0.2-3.5,0.3-5.8,0.3c-4.6,0-8.5-0.4-11.5-1.3c-3.1-0.9-5.5-2-7.3-3.4c-1.8-1.4-3.1-3-3.8-4.7c-0.7-1.7-1.1-3.4-1.1-5.1
			c0-2.5,0.7-4.9,2-7.1c1.4-2.2,3.3-4.2,5.8-5.8c2.5-1.7,5.5-3,8.9-3.9c3.4-0.9,7.2-1.4,11.4-1.4c2.2,0,4.2,0.1,6,0.3
			c1.8,0.2,3.3,0.4,4.7,0.7c1.4,0.3,2.5,0.6,3.5,1c1,0.3,1.8,0.6,2.5,0.9c-0.7,0.7-1.3,1.5-1.9,2.2c-0.5,0.8-0.9,1.4-1.3,2h-0.7
			C42.1,57.7,40.5,56.5,38.6,55.9z"/>
		<path id="XMLID_16_" class="st0" d="M55.9,77.5c-0.7,2.4-1.4,4.7-2,7c-0.9-0.1-1.8-0.1-2.7-0.1c-0.9,0-1.8,0-2.7,0
			c-1.1,0-2.1,0-3,0c-0.8,0-1.6,0-2.4,0.1c1.5-3.9,3-7.9,4.4-11.9c1.4-4,2.7-8.1,3.8-12.2c0.4-1.3,0.7-2.6,1.1-3.9
			c0.4-1.3,0.7-2.6,1-3.9c0.7,0.1,1.5,0.1,2.3,0.2c0.8,0,1.8,0.1,2.8,0.1c1.4,0,3,0,4.6-0.1c1.6-0.1,3.2-0.1,5-0.1
			c3.9,0,7.1,0.6,9.4,1.8c2.4,1.2,3.5,3.3,3.5,6.1c0,1.8-0.5,3.3-1.4,4.6c-0.9,1.3-2.2,2.3-3.8,3.2c-1.6,0.8-3.4,1.4-5.5,1.8
			c-2.1,0.4-4.4,0.6-6.8,0.6c-1.1,0-2.1,0-3-0.1c-0.9,0-1.7-0.1-2.4-0.2C57.4,72.8,56.6,75.1,55.9,77.5z M70.3,57.5
			c-0.4-0.6-1-1.1-1.7-1.4c-0.7-0.3-1.6-0.5-2.5-0.6c-1-0.1-2.1-0.1-3.3-0.1c-0.8,2.1-1.5,4.3-2.1,6.4c-0.7,2.1-1.3,4.3-1.9,6.5
			c0.4,0,0.7,0.1,1.1,0.1c0.3,0,0.8,0,1.3,0c1.7,0,3.2-0.2,4.5-0.7c1.2-0.5,2.3-1.1,3.1-1.9c0.8-0.8,1.4-1.7,1.8-2.7
			c0.4-1,0.6-2.1,0.6-3.1C71,58.9,70.8,58.1,70.3,57.5z"/>
	</g>
	<g id="XMLID_10_">
		<path id="XMLID_13_" class="st0" d="M87.8,52.7h3.4L103.9,81h0.1l5.8-28.2h2.9l-6.9,31.6h-3.3L89.9,56.1h-0.1l-5.9,28.2H81
			L87.8,52.7z"/>
		<path id="XMLID_11_" class="st0" d="M115.3,52.7h3l1.6,28.1h0.1l13.4-28.1h3.6l2.2,27.8h0.1l12.9-27.8h3.1l-15.2,31.6h-3.3
			l-2.1-28.7h-0.1L121,84.3h-3.3L115.3,52.7z"/>
	</g>
	<path id="XMLID_9_" class="st0" d="M89.2,35.6c-4.2,3.3-10.9,5.2-17.9,3.9C78.9,37.7,84.6,32.8,86,27c-2.2,4.2-6.8,8.2-12.7,10.2
		c4.7-4.5,7.1-10.2,6.2-15.4c-0.4,5.7-4.1,12.2-10.6,16.4c-0.4,0.1-0.8,0.1-1.2,0.1c0,0-0.1,0-0.1,0c-8.3-3-14.2-10.3-15.5-16.5
		c-0.2,6.3,4.5,12.9,12,16.6c-7.5-0.3-14.2-4-17.5-8.5c2.5,6.1,10.1,10.2,18.9,10.1c-7.5,3.5-15.7,3.2-20.9,0.3
		c5.1,4.9,14.4,5.5,22.9,1c0.3-0.2,0.7-0.4,1-0.5l5,19.2c0,0,0.7,5.1,2.4,6.4c1.7,1.3,3.3,0.2,2.6-1.3c-0.7-1.5-3.6-4.2-5-8.1
		c-1.2-3.2-3.2-13.5-3.8-16.6C77.6,42.5,85.4,40.4,89.2,35.6z"/>
	<path id="XMLID_8_" class="st0" d="M101.6,32.7c4.9,3.5,10.7,4.4,14.8,2.2c-3.6,0.9-8.3,0.2-12.5-2.2c5,0.5,9.6-1.1,12.2-4.2
		c-3.6,2.7-9.3,3.8-15,2.2c-0.2-0.2-0.5-0.4-0.7-0.6c0,0,0,0,0-0.1c-2.4-6.4-1.2-13.6,1.7-17.5c-3.8,3.1-5.3,9.3-3.6,15.5
		c-3.7-4.6-4.9-10.4-4-14.6c-2.3,4.6-0.8,11.2,3.8,16.3c-5.9-2.6-10-7.6-10.9-12.2c-0.3,5.5,4.2,11.3,11.1,13.9
		c0.3,0.1,0.5,0.2,0.8,0.3l-8.7,12.8c0,0-2.6,3-2.5,4.6c0.1,1.6,1.6,2.1,2.1,0.9c0.5-1.2,0.7-4.3,2.2-7.1c1.3-2.4,6.3-8.8,7.8-10.7
		c3,5.7,8.1,9.2,12.9,8.9C108.9,40.4,104.4,37.5,101.6,32.7z"/>
	<path id="XMLID_7_" class="st0" d="M128.3,30c-0.2-1.1-2.3-2.6-2.3-2.6l-7.5-7c0.2-0.1,0.3-0.2,0.5-0.3c4.1-2.7,6.2-7.2,5.2-10.7
		c0.1,3.1-1.8,6.9-5.3,9.5c2.2-4,2.2-8.4,0.1-11.1c1.2,2.6,1.3,6.5-0.5,10.1c0.2-4.3-1.7-8.1-4.6-9.5c2.5,2.1,4.3,6.6,3.7,11.1
		c0,0,0,0,0,0.1c-0.1,0.2-0.2,0.3-0.4,0.5c-3.5,1.9-7.4,2-10.1,0.8c2.1,1.7,5.3,2,8.5,1c-2.4,2.2-5.3,3.3-7.8,3.3
		c3,0.8,6.6-0.6,9.3-3.6c-1.1,3.5-3.6,6-6.2,7.2c3.2-0.6,6-3.6,7.1-7.7c1.2,1,5.4,4.5,6.6,5.8c1.4,1.6,1.9,3.6,2.4,4.2
		C127.6,31.5,128.5,31,128.3,30z"/>
	<path id="XMLID_6_" class="st0" d="M170.6,25.3c3.9,0.6,7.6-0.8,9.1-3.4c-1.7,1.8-4.9,3.1-8.3,2.8c3.6-1.2,6.1-3.9,6.3-6.7
		c-0.9,2.7-4,5.6-7.9,6.5c0,0,0,0,0,0c-0.2,0-0.4-0.1-0.5-0.1c-2.6-2.3-3.9-5.4-3.8-7.9c-0.7,2.2,0,4.9,1.9,7.2
		c-2.5-1.2-4.3-3.3-5.1-5.3c0.3,2.7,2.6,5.2,5.8,6.4c-3.2,0.2-6.1-1.1-7.8-2.8c1.4,2.4,4.8,3.8,8.4,3.4c-0.4,1.3-1.9,5.8-2.7,7.2
		c-0.9,1.6-2.3,2.7-2.7,3.3c-0.4,0.6,0.3,1.2,1.1,0.7c0.8-0.5,1.4-2.7,1.4-2.7l3.3-8.3c0.1,0.1,0.3,0.2,0.4,0.3
		c3.5,2.5,7.7,2.8,10.3,0.9C177.4,27.7,173.7,27.3,170.6,25.3z"/>
	<path id="XMLID_5_" class="st0" d="M151.5,19.2c-1.5,2.7-5,5.1-9.3,5.6c3.9-2.3,6.1-6.2,5.6-9.6c-0.2,2.9-2.1,6.3-5.4,8.5
		c2.3-3.7,2.6-7.9,0.7-10.6c1.1,3.1,0.5,7.9-2.3,11.5c0,0,0,0,0,0c-0.2,0.1-0.4,0.2-0.6,0.3c-4-0.1-7.4-1.9-9.1-4.3
		c1,2.5,3.6,4.4,6.9,5.1c-3.1,0.7-6.3,0.2-8.4-1c2.2,2.2,6,2.7,9.8,1.5c-2.7,2.5-6.1,3.4-8.9,3.2c3,1.1,7-0.1,9.9-3.1
		c0.6,1.5,2.5,6.6,2.8,8.3c0.4,2.1-0.1,4.1,0,4.9c0.1,0.8,1.1,0.9,1.5-0.2c0.4-1-0.7-3.4-0.7-3.4l-3.1-9.8c0.2,0,0.4,0,0.6,0
		C146.7,25.6,150.6,22.7,151.5,19.2z"/>
	<path id="XMLID_4_" class="st0" d="M217.6,26.4c-0.5-0.3-1.9-0.5-3.1-1.3c-1-0.7-3.8-3.2-4.6-4c2.7-1.1,4.5-3.3,4.6-5.5
		c-0.5,1.8-2,3.8-4.3,4.9c1.8-2.1,2.4-4.7,1.6-6.7c0.2,1.7-0.2,3.8-1.5,5.6c0.4-2.3-0.1-4.4-1.4-5.7c1.1,1.7,1.4,4.4,0.4,7
		c-0.1,0.1-0.2,0.2-0.3,0.3c0,0,0,0,0,0c-3,0.9-6.2,0-7.9-1.5c1.3,1.9,4,2.8,6.9,2.3c-2.2,1.5-4.9,1.8-6.8,1.2
		c2,1.2,5.1,0.8,7.6-1.1c-1.4,2.6-3.9,4.2-6,4.5c2.5,0.3,5.3-1.5,6.8-4.5c0.1-0.1,0.1-0.2,0.2-0.4l5.5,4.5c0,0,1.3,1.3,2,1.3
		C217.8,27.4,218.1,26.7,217.6,26.4z"/>
	<path id="XMLID_3_" class="st0" d="M187.9,15.1c-0.6-0.3-2.3-0.5-3.8-1.5c-1.2-0.8-4.6-3.8-5.6-4.7c3.2-1.4,5.4-4,5.4-6.7
		c-0.6,2.2-2.4,4.6-5.1,5.9c2.1-2.5,2.8-5.7,1.8-8c0.3,2-0.2,4.6-1.7,6.8c0.5-2.7-0.2-5.3-1.8-6.8c1.3,2.1,1.7,5.2,0.6,8.3
		c-0.1,0.1-0.2,0.2-0.4,0.4c0,0,0,0,0,0c-3.6,1.1-7.5,0.1-9.5-1.7c1.5,2.2,4.9,3.3,8.4,2.6c-2.7,1.8-5.9,2.2-8.2,1.6
		c2.4,1.4,6.1,0.9,9.1-1.4c-1.7,3.1-4.6,5.1-7.1,5.4c3,0.4,6.4-1.8,8.1-5.5c0.1-0.1,0.1-0.3,0.2-0.4l6.6,5.3c0,0,1.5,1.6,2.4,1.6
		C188.2,16.2,188.5,15.4,187.9,15.1z"/>
</g>
</svg>
