<?xml version="1.0" encoding="utf-8"?>
<!-- Generator: Adobe Illustrator 19.0.0, SVG Export Plug-In . SVG Version: 6.00 Build 0)  -->
<svg version="1.1" id="Layer_1" xmlns="http://www.w3.org/2000/svg" xmlns:xlink="http://www.w3.org/1999/xlink" x="0px" y="0px"
	 viewBox="0 0 163 72.8" style="enable-background:new 0 0 163 72.8;" xml:space="preserve">
<style type="text/css">
	.st0{fill:#007E8D;}
	.st1{fill:#95D600;}
	.st2{fill:#AA9B73;}
</style>
<g id="XMLID_3_">
	<g id="XMLID_22_">
		<path id="XMLID_84_" class="st0" d="M4.9,70.7c-0.3,1.3-1.1,2-2.5,2c-1.5,0-2.4-0.9-2.4-2.5c0-1.8,1.2-3.4,3.1-3.4
			c1.2,0,2.2,0.6,2.2,2H4.5c0-0.9-0.6-1.3-1.4-1.3c-1.6,0-2.4,1.5-2.4,2.8c0,1.1,0.5,1.8,1.7,1.8c0.9,0,1.5-0.5,1.8-1.4H4.9z"/>
		<path id="XMLID_82_" class="st0" d="M6.6,67h0.7l-1.2,5.7H5.4L6.6,67z"/>
		<path id="XMLID_79_" class="st0" d="M8.2,68.5h0.7L8,72.6H7.4L8.2,68.5z M9.1,67.8H8.4L8.5,67h0.7L9.1,67.8z"/>
		<path id="XMLID_77_" class="st0" d="M10.2,68.5h0.7l-0.1,0.6h0c0.3-0.5,0.9-0.7,1.5-0.7c0.8,0,1.1,0.3,1.1,1.1
			c0,0.2,0,0.5-0.1,0.8l-0.5,2.3H12l0.5-2.4c0-0.2,0.1-0.5,0.1-0.6c0-0.4-0.3-0.6-0.7-0.6c-0.4,0-0.8,0.2-1,0.5
			c-0.2,0.2-0.4,0.5-0.5,0.9L10,72.6H9.3L10.2,68.5z"/>
		<path id="XMLID_74_" class="st0" d="M14.8,68.5h0.7l-0.9,4.1h-0.7L14.8,68.5z M15.6,67.8h-0.7l0.2-0.8h0.7L15.6,67.8z"/>
		<path id="XMLID_72_" class="st0" d="M19.1,69.8c0-0.5-0.3-0.8-0.9-0.8c-1,0-1.6,1-1.6,1.9c0,0.6,0.3,1.2,1,1.2
			c0.6,0,1-0.3,1.2-0.8h0.7c-0.2,0.9-0.9,1.4-1.9,1.4c-1.1,0-1.7-0.7-1.7-1.8c0-1.3,0.8-2.5,2.3-2.5c0.9,0,1.5,0.4,1.5,1.4H19.1z"/>
		<path id="XMLID_69_" class="st0" d="M20.7,69.8c0.1-0.9,0.9-1.3,1.8-1.3c0.8,0,1.5,0.2,1.5,1c0,0.2-0.1,0.5-0.1,0.7l-0.3,1.1
			c0,0.2-0.1,0.4-0.1,0.6c0,0.2,0.1,0.3,0.2,0.3c0.1,0,0.2,0,0.2-0.1l-0.1,0.5c-0.1,0.1-0.3,0.1-0.4,0.1c-0.4,0-0.6-0.2-0.5-0.6l0,0
			c-0.3,0.4-0.7,0.6-1.4,0.6c-0.7,0-1.3-0.3-1.3-1.2c0-1.2,1.2-1.3,2.1-1.3c0.7-0.1,1-0.1,1-0.6c0-0.4-0.5-0.5-0.8-0.5
			c-0.5,0-1,0.2-1.1,0.7H20.7z M21.7,72.1c0.5,0,0.9-0.2,1.1-0.5c0.2-0.3,0.3-0.7,0.4-1.1h0c-0.3,0.2-0.8,0.2-1.3,0.3
			c-0.5,0.1-0.9,0.2-0.9,0.7C20.9,71.9,21.3,72.1,21.7,72.1z"/>
		<path id="XMLID_67_" class="st0" d="M25.8,67h0.7l-1.2,5.7h-0.7L25.8,67z"/>
		<path id="XMLID_64_" class="st0" d="M30.3,67h2.2c1.1,0,1.7,0.5,1.7,1.6c0,0.7-0.5,1.8-2.2,1.8h-1.7l-0.5,2.3h-0.8L30.3,67z
			 M30.5,69.7h1.7c0.8,0,1.3-0.5,1.3-1.1c0-0.7-0.4-0.9-0.9-0.9h-1.6L30.5,69.7z"/>
		<path id="XMLID_62_" class="st0" d="M35.3,67h0.7l-1.2,5.7h-0.7L35.3,67z"/>
		<path id="XMLID_59_" class="st0" d="M36.5,69.8c0.1-0.9,0.9-1.3,1.8-1.3c0.8,0,1.5,0.2,1.5,1c0,0.2-0.1,0.5-0.1,0.7l-0.3,1.1
			c0,0.2-0.1,0.4-0.1,0.6c0,0.2,0.1,0.3,0.2,0.3c0.1,0,0.2,0,0.2-0.1l-0.1,0.5c-0.1,0.1-0.3,0.1-0.4,0.1c-0.4,0-0.6-0.2-0.5-0.6l0,0
			c-0.3,0.4-0.7,0.6-1.4,0.6c-0.7,0-1.3-0.3-1.3-1.2c0-1.2,1.2-1.3,2.1-1.3c0.7-0.1,1-0.1,1-0.6c0-0.4-0.5-0.5-0.8-0.5
			c-0.5,0-1,0.2-1.1,0.7H36.5z M37.4,72.1c0.5,0,0.9-0.2,1.1-0.5c0.2-0.3,0.3-0.7,0.4-1.1h0c-0.3,0.2-0.8,0.2-1.3,0.3
			c-0.5,0.1-0.9,0.2-0.9,0.7C36.7,71.9,37,72.1,37.4,72.1z"/>
		<path id="XMLID_57_" class="st0" d="M43.5,69.8c0-0.5-0.3-0.8-0.9-0.8c-1,0-1.6,1-1.6,1.9c0,0.6,0.3,1.2,1,1.2
			c0.6,0,1-0.3,1.2-0.8h0.7c-0.2,0.9-0.9,1.4-1.9,1.4c-1.1,0-1.7-0.7-1.7-1.8c0-1.3,0.8-2.5,2.3-2.5c0.9,0,1.5,0.4,1.5,1.4H43.5z"/>
		<path id="XMLID_54_" class="st0" d="M45.5,70.8c0,0.1,0,0.2,0,0.4c0,0.6,0.5,1,1.1,1c0.6,0,1-0.3,1.2-0.8h0.7
			c-0.2,0.9-1,1.4-1.9,1.4c-1.4,0-1.7-0.9-1.7-1.6c0-1.6,1-2.6,2.1-2.6c1.2,0,1.7,0.7,1.7,1.8c0,0.2,0,0.4-0.1,0.5H45.5z M47.9,70.2
			c0-0.6-0.2-1.2-1-1.2c-0.8,0-1.2,0.5-1.4,1.2H47.9z"/>
		<path id="XMLID_52_" class="st0" d="M50,68.5h0.6l-0.2,0.6l0,0c0.3-0.4,0.9-0.7,1.4-0.7c0.5,0,0.9,0.2,1,0.7
			c0.3-0.4,0.9-0.7,1.4-0.7c0.6,0,1.1,0.3,1.1,0.9c0,0.2-0.1,0.6-0.1,0.8l-0.5,2.5h-0.7l0.6-2.6c0-0.1,0.1-0.3,0.1-0.4
			c0-0.3-0.3-0.6-0.6-0.6c-0.4,0-0.8,0.3-1,0.6c-0.2,0.2-0.3,0.6-0.4,0.9l-0.5,2.1h-0.7l0.5-2.3c0.1-0.3,0.1-0.6,0.1-0.7
			c0-0.3-0.2-0.5-0.6-0.5c-0.4,0-0.8,0.3-1,0.5c-0.3,0.3-0.3,0.5-0.4,0.9l-0.5,2.1h-0.7L50,68.5z"/>
		<path id="XMLID_49_" class="st0" d="M56.9,70.8c0,0.1,0,0.2,0,0.4c0,0.6,0.5,1,1.1,1c0.6,0,1-0.3,1.2-0.8h0.7
			c-0.2,0.9-1,1.4-1.9,1.4c-1.4,0-1.7-0.9-1.7-1.6c0-1.6,1-2.6,2.1-2.6c1.2,0,1.7,0.7,1.7,1.8c0,0.2,0,0.4-0.1,0.5H56.9z M59.4,70.2
			c0-0.6-0.2-1.2-1-1.2c-0.8,0-1.2,0.5-1.4,1.2H59.4z"/>
		<path id="XMLID_47_" class="st0" d="M61.4,68.5h0.6L62,69.2h0c0.3-0.5,0.9-0.7,1.5-0.7c0.8,0,1.1,0.3,1.1,1.1c0,0.2,0,0.5-0.1,0.8
			L64,72.6h-0.7l0.5-2.4c0-0.2,0.1-0.5,0.1-0.6c0-0.4-0.3-0.6-0.7-0.6c-0.4,0-0.8,0.2-1,0.5c-0.2,0.2-0.4,0.5-0.5,0.9l-0.5,2.3h-0.7
			L61.4,68.5z"/>
		<path id="XMLID_45_" class="st0" d="M66.9,68.5h0.8l-0.1,0.6h-0.8l-0.5,2.4c0,0.1,0,0.2,0,0.3c0,0.2,0.2,0.3,0.4,0.3
			c0.1,0,0.3,0,0.4-0.1l-0.1,0.6c-0.2,0-0.3,0-0.5,0c-0.5,0-0.9-0.1-0.9-0.7c0-0.1,0-0.2,0-0.3l0.5-2.5h-0.7l0.1-0.6h0.7l0.3-1.2
			h0.7L66.9,68.5z"/>
		<path id="XMLID_43_" class="st0" d="M70.6,69.7c0-0.5-0.4-0.7-0.8-0.7c-0.4,0-0.9,0.1-0.9,0.5c0,0.4,0.5,0.5,1.1,0.8
			c0.5,0.2,1.1,0.5,1.1,1.1c0,0.9-0.9,1.3-1.7,1.3c-0.9,0-1.7-0.3-1.7-1.4h0.7c0,0.6,0.5,0.8,1,0.8c0.4,0,0.9-0.2,0.9-0.6
			c0-0.4-0.5-0.6-1.1-0.8c-0.5-0.2-1.1-0.5-1.1-1.1c0-0.8,0.8-1.2,1.5-1.2c0.8,0,1.5,0.3,1.5,1.3H70.6z"/>
		<path id="XMLID_41_" class="st0" d="M75.5,67h0.8l2,4.7h0l0.9-4.7H80l-1.2,5.7H78L76,68h0l-1,4.7h-0.7L75.5,67z"/>
		<path id="XMLID_38_" class="st0" d="M82.4,68.4c1.1,0,1.7,0.6,1.7,1.7c0,1.3-0.8,2.6-2.3,2.6c-1.1,0-1.7-0.7-1.7-1.7
			C80.1,69.7,81,68.4,82.4,68.4z M81.9,72.1c1,0,1.5-1.1,1.5-1.9c0-0.6-0.3-1.2-1.1-1.2c-1,0-1.6,1.1-1.6,2
			C80.8,71.7,81.2,72.1,81.9,72.1z"/>
		<path id="XMLID_36_" class="st0" d="M85.5,68.5h0.6L86,69.4h0c0.3-0.6,0.8-1,1.5-1c0.1,0,0.2,0,0.2,0l-0.2,0.7c-0.1,0-0.1,0-0.2,0
			c-0.2,0-0.2,0-0.4,0c-0.4,0.1-0.7,0.3-0.9,0.7c-0.2,0.3-0.3,0.6-0.3,1l-0.4,1.8h-0.7L85.5,68.5z"/>
		<path id="XMLID_34_" class="st0" d="M89.5,68.5h0.8l-0.1,0.6h-0.8l-0.5,2.4c0,0.1,0,0.2,0,0.3c0,0.2,0.2,0.3,0.4,0.3
			c0.1,0,0.3,0,0.4-0.1l-0.1,0.6c-0.2,0-0.3,0-0.5,0c-0.5,0-0.9-0.1-0.9-0.7c0-0.1,0-0.2,0-0.3l0.5-2.5h-0.7l0.1-0.6h0.7l0.3-1.2
			h0.7L89.5,68.5z"/>
		<path id="XMLID_32_" class="st0" d="M91.6,67h0.7l-0.5,2.2l0,0c0.3-0.5,0.9-0.7,1.5-0.7c0.8,0,1.1,0.3,1.1,1.1
			c0,0.2,0,0.5-0.1,0.8l-0.5,2.3h-0.7l0.5-2.4c0-0.2,0.1-0.5,0.1-0.6c0-0.4-0.3-0.6-0.7-0.6c-0.4,0-0.8,0.2-1,0.5
			c-0.2,0.2-0.4,0.5-0.5,0.9L91,72.6h-0.7L91.6,67z"/>
		<path id="XMLID_30_" class="st0" d="M98.9,72.6h-0.7l-0.2-3.2h0l-1.5,3.2h-0.7l-0.5-4.1H96l0.3,3.3h0l1.5-3.3h0.8l0.2,3.3h0
			l1.6-3.3h0.7L98.9,72.6z"/>
		<path id="XMLID_27_" class="st0" d="M101.8,70.8c0,0.1,0,0.2,0,0.4c0,0.6,0.5,1,1.1,1c0.6,0,1-0.3,1.2-0.8h0.7
			c-0.2,0.9-1,1.4-1.9,1.4c-1.4,0-1.7-0.9-1.7-1.6c0-1.6,1-2.6,2.1-2.6c1.2,0,1.7,0.7,1.7,1.8c0,0.2,0,0.4-0.1,0.5H101.8z
			 M104.2,70.2c0-0.6-0.2-1.2-1-1.2c-0.8,0-1.2,0.5-1.4,1.2H104.2z"/>
		<path id="XMLID_25_" class="st0" d="M108.3,69.7c0-0.5-0.4-0.7-0.8-0.7c-0.4,0-0.9,0.1-0.9,0.5c0,0.4,0.5,0.5,1.1,0.8
			c0.5,0.2,1.1,0.5,1.1,1.1c0,0.9-0.9,1.3-1.7,1.3c-0.9,0-1.7-0.3-1.7-1.4h0.7c0,0.6,0.5,0.8,1,0.8c0.4,0,0.9-0.2,0.9-0.6
			c0-0.4-0.5-0.6-1.1-0.8c-0.5-0.2-1.1-0.5-1.1-1.1c0-0.8,0.8-1.2,1.5-1.2c0.8,0,1.5,0.3,1.5,1.3H108.3z"/>
		<path id="XMLID_23_" class="st0" d="M111.2,68.5h0.8l-0.1,0.6H111l-0.5,2.4c0,0.1,0,0.2,0,0.3c0,0.2,0.2,0.3,0.4,0.3
			c0.1,0,0.3,0,0.4-0.1l-0.1,0.6c-0.2,0-0.3,0-0.5,0c-0.5,0-0.9-0.1-0.9-0.7c0-0.1,0-0.2,0-0.3l0.5-2.5h-0.7l0.1-0.6h0.7l0.3-1.2
			h0.7L111.2,68.5z"/>
	</g>
	<g id="XMLID_16_">
		<path id="XMLID_20_" class="st0" d="M28.6,41.9c-1.4-0.5-3.2-0.7-5.2-0.7c-2.5,0-4.7,0.4-6.5,1.3c-1.8,0.8-3.2,1.9-4.3,3.2
			c-1.1,1.3-1.9,2.7-2.4,4.3c-0.5,1.6-0.8,3.1-0.8,4.5c0,2.3,0.8,4.1,2.5,5.4c1.7,1.3,4.2,2,7.6,2c1.6,0,3.2-0.2,4.7-0.5
			c1.5-0.3,2.9-0.8,4.2-1.6L29,60c-0.4,0.5-0.7,1-1,1.4c-0.3,0.4-0.6,0.9-0.9,1.4c-1.1,0.3-2.2,0.5-3.3,0.6
			c-1.1,0.1-2.6,0.2-4.4,0.2c-3.5,0-6.3-0.3-8.6-1c-2.3-0.7-4.1-1.5-5.5-2.6c-1.4-1.1-2.3-2.3-2.9-3.5c-0.5-1.3-0.8-2.6-0.8-3.8
			c0-1.9,0.5-3.7,1.5-5.4c1-1.7,2.5-3.1,4.3-4.4c1.9-1.2,4.1-2.2,6.7-2.9c2.6-0.7,5.4-1.1,8.5-1.1c1.7,0,3.2,0.1,4.5,0.2
			c1.3,0.2,2.5,0.3,3.5,0.6c1,0.2,1.9,0.5,2.6,0.7c0.7,0.3,1.4,0.5,1.9,0.7c-0.5,0.5-1,1.1-1.4,1.7c-0.4,0.6-0.7,1.1-0.9,1.5h-0.5
			C31.3,43.2,30.1,42.4,28.6,41.9z"/>
		<path id="XMLID_17_" class="st0" d="M41.6,58.1c-0.5,1.8-1,3.5-1.5,5.3c-0.7,0-1.4-0.1-2-0.1c-0.7,0-1.3,0-2,0c-0.8,0-1.6,0-2.2,0
			c-0.6,0-1.2,0-1.8,0.1c1.2-2.9,2.2-5.9,3.3-8.9c1-3,2-6,2.9-9.1c0.3-1,0.5-1.9,0.8-2.9c0.3-1,0.5-1.9,0.7-2.9
			c0.5,0,1.1,0.1,1.8,0.1c0.6,0,1.3,0.1,2.1,0.1c1.1,0,2.2,0,3.4-0.1c1.2-0.1,2.4-0.1,3.7-0.1c3,0,5.3,0.5,7.1,1.4
			c1.8,0.9,2.6,2.4,2.6,4.6c0,1.3-0.3,2.5-1,3.4c-0.7,1-1.6,1.8-2.8,2.4c-1.2,0.6-2.6,1.1-4.2,1.4c-1.6,0.3-3.3,0.5-5.1,0.5
			c-0.8,0-1.6,0-2.3-0.1c-0.7,0-1.3-0.1-1.8-0.1C42.7,54.6,42.1,56.3,41.6,58.1z M52.4,43.1c-0.3-0.5-0.7-0.8-1.2-1.1
			c-0.5-0.2-1.2-0.4-1.9-0.5c-0.7-0.1-1.6-0.1-2.4-0.1c-0.6,1.6-1.1,3.2-1.6,4.8c-0.5,1.6-1,3.2-1.5,4.8c0.3,0,0.5,0,0.8,0.1
			c0.3,0,0.6,0,0.9,0c1.3,0,2.4-0.2,3.3-0.5c0.9-0.3,1.7-0.8,2.3-1.4c0.6-0.6,1-1.3,1.3-2c0.3-0.8,0.4-1.5,0.4-2.4
			C52.9,44.2,52.8,43.5,52.4,43.1z"/>
	</g>
	<g id="XMLID_11_">
		<path id="XMLID_14_" class="st1" d="M65.6,39.5h2.6l9.5,21.2h0.1L82,39.5h2.2L79,63.2h-2.5L67.1,42H67l-4.4,21.2h-2.2L65.6,39.5z"
			/>
		<path id="XMLID_12_" class="st1" d="M86.2,39.5h2.3l1.2,21.1h0.1l10.1-21.1h2.7l1.6,20.9h0.1l9.7-20.9h2.4l-11.4,23.7h-2.5
			l-1.6-21.5h-0.1L90.4,63.2h-2.5L86.2,39.5z"/>
	</g>
	<path id="XMLID_10_" class="st2" d="M66.6,26.7c-3.2,2.5-8.2,3.9-13.4,2.9c5.6-1.3,9.9-5,11-9.3c-1.7,3.2-5.1,6.2-9.5,7.7
		c3.5-3.4,5.3-7.7,4.6-11.5c-0.3,4.3-3.1,9.1-7.9,12.3c-0.3,0-0.6,0.1-0.9,0.1c0,0,0,0-0.1,0c-6.2-2.3-10.6-7.7-11.6-12.3
		c-0.2,4.7,3.4,9.7,9,12.4c-5.7-0.2-10.6-3-13.1-6.3c1.9,4.6,7.6,7.7,14.2,7.6c-5.6,2.6-11.8,2.4-15.7,0.2C37,33.9,44,34.4,50.3,31
		c0.2-0.1,0.5-0.3,0.7-0.4L54.8,45c0,0,0.5,3.8,1.8,4.8c1.2,1,2.5,0.2,2-0.9c-0.5-1.1-2.7-3.2-3.7-6c-0.9-2.4-2.4-10.2-2.9-12.4
		C57.9,31.8,63.7,30.3,66.6,26.7z"/>
	<path id="XMLID_9_" class="st2" d="M75.9,24.5c3.7,2.6,8,3.3,11.1,1.7c-2.7,0.6-6.2,0.2-9.4-1.6c3.8,0.3,7.2-0.8,9.1-3.2
		c-2.7,2-6.9,2.9-11.3,1.7c-0.2-0.2-0.4-0.3-0.5-0.5c0,0,0,0,0-0.1C73,17.7,74,12.3,76.2,9.4c-2.9,2.3-4,6.9-2.7,11.6
		c-2.8-3.4-3.7-7.8-3-10.9c-1.7,3.5-0.6,8.4,2.8,12.2c-4.4-1.9-7.5-5.7-8.1-9.1c-0.2,4.1,3.1,8.4,8.4,10.4c0.2,0.1,0.4,0.1,0.6,0.2
		l-6.5,9.6c0,0-2,2.3-1.9,3.5c0.1,1.2,1.2,1.6,1.6,0.7c0.4-0.9,0.5-3.2,1.6-5.3c1-1.8,4.7-6.6,5.8-8.1c2.2,4.2,6.1,6.9,9.7,6.7
		C81.4,30.3,78,28.1,75.9,24.5z"/>
	<path id="XMLID_8_" class="st2" d="M95.9,22.5c-0.1-0.8-1.7-2-1.7-2l-5.6-5.3c0.1-0.1,0.2-0.1,0.4-0.2c3.1-2.1,4.6-5.4,3.9-8
		c0.1,2.3-1.4,5.2-3.9,7.1c1.7-3,1.7-6.3,0-8.3c0.9,2,0.9,4.9-0.3,7.5c0.1-3.2-1.3-6.1-3.5-7.2c1.9,1.6,3.3,4.9,2.8,8.3c0,0,0,0,0,0
		c-0.1,0.1-0.2,0.3-0.3,0.4c-2.6,1.4-5.5,1.5-7.6,0.6c1.6,1.2,4,1.5,6.4,0.7c-1.8,1.6-4,2.5-5.8,2.4c2.2,0.6,4.9-0.5,6.9-2.7
		c-0.8,2.6-2.7,4.5-4.6,5.4c2.4-0.4,4.5-2.7,5.3-5.7c0.9,0.8,4.1,3.4,5,4.4c1,1.2,1.5,2.7,1.8,3.2C95.4,23.6,96,23.3,95.9,22.5z"/>
	<path id="XMLID_7_" class="st2" d="M127.6,19c2.9,0.4,5.7-0.6,6.8-2.6c-1.3,1.4-3.7,2.3-6.2,2.1c2.7-0.9,4.5-2.9,4.7-5
		c-0.7,2-3,4.2-5.9,4.8c0,0,0,0,0,0c-0.1,0-0.3-0.1-0.4-0.1c-2-1.7-2.9-4-2.8-6c-0.5,1.7,0,3.7,1.4,5.4c-1.9-0.9-3.3-2.5-3.8-4
		c0.2,2,1.9,3.9,4.4,4.8c-2.4,0.1-4.5-0.8-5.8-2.1c1.1,1.8,3.6,2.8,6.3,2.5c-0.3,1-1.5,4.4-2,5.4c-0.6,1.2-1.7,2-2,2.5
		c-0.3,0.5,0.2,0.9,0.8,0.5c0.6-0.4,1.1-2,1.1-2l2.5-6.2c0.1,0.1,0.2,0.2,0.3,0.2c2.6,1.9,5.8,2.1,7.7,0.7
		C132.7,20.8,129.9,20.5,127.6,19z"/>
	<path id="XMLID_6_" class="st2" d="M113.3,14.4c-1.1,2-3.8,3.8-6.9,4.2c2.9-1.8,4.6-4.7,4.2-7.2c-0.2,2.2-1.6,4.7-4,6.4
		c1.7-2.7,1.9-5.9,0.6-7.9c0.8,2.3,0.4,5.9-1.7,8.6c0,0,0,0,0,0c-0.1,0.1-0.3,0.1-0.4,0.2c-3-0.1-5.5-1.5-6.8-3.2
		c0.8,1.9,2.7,3.3,5.2,3.8c-2.4,0.5-4.7,0.2-6.3-0.8c1.6,1.6,4.5,2.1,7.4,1.1c-2,1.9-4.6,2.6-6.7,2.4c2.3,0.8,5.2-0.1,7.5-2.4
		c0.4,1.1,1.9,4.9,2.1,6.2c0.3,1.5-0.1,3,0,3.7c0.1,0.6,0.8,0.6,1.1-0.1c0.3-0.8-0.5-2.6-0.5-2.6l-2.3-7.4c0.1,0,0.3,0,0.4,0
		C109.7,19.2,112.6,17,113.3,14.4z"/>
	<path id="XMLID_5_" class="st2" d="M162.8,19.8c-0.4-0.2-1.4-0.4-2.3-1c-0.8-0.5-2.8-2.4-3.4-3c2-0.8,3.4-2.5,3.4-4.2
		c-0.4,1.4-1.5,2.8-3.2,3.7c1.3-1.6,1.8-3.5,1.2-5c0.2,1.3-0.2,2.8-1.1,4.2c0.3-1.7-0.1-3.3-1.1-4.3c0.8,1.3,1,3.3,0.3,5.2
		c-0.1,0.1-0.2,0.2-0.2,0.2c0,0,0,0,0,0c-2.3,0.6-4.7,0-5.9-1.1c0.9,1.4,3,2.1,5.2,1.7c-1.7,1.1-3.7,1.4-5.1,0.9
		c1.5,0.9,3.8,0.6,5.7-0.8c-1.1,1.9-2.9,3.2-4.5,3.4c1.9,0.3,4-1.1,5.1-3.4c0-0.1,0.1-0.2,0.1-0.3l4.1,3.4c0,0,1,1,1.5,1
		C163,20.5,163.2,20,162.8,19.8z"/>
	<path id="XMLID_4_" class="st2" d="M140.5,11.3c-0.5-0.2-1.7-0.4-2.8-1.1c-0.9-0.6-3.4-2.9-4.2-3.5c2.4-1,4-3,4.1-5
		c-0.5,1.7-1.8,3.4-3.8,4.4c1.6-1.9,2.1-4.2,1.4-6c0.2,1.5-0.2,3.4-1.3,5.1c0.4-2.1-0.1-4-1.3-5.1c1,1.5,1.3,3.9,0.4,6.2
		c-0.1,0.1-0.2,0.2-0.3,0.3c0,0,0,0,0,0c-2.7,0.8-5.6,0.1-7.1-1.3c1.2,1.7,3.6,2.5,6.3,2c-2,1.4-4.4,1.7-6.1,1.2
		c1.8,1.1,4.6,0.7,6.8-1c-1.2,2.3-3.4,3.8-5.3,4.1c2.2,0.3,4.8-1.4,6.1-4.1c0.1-0.1,0.1-0.2,0.1-0.3l5,4c0,0,1.2,1.2,1.8,1.2
		C140.8,12.2,141,11.6,140.5,11.3z"/>
</g>
</svg>
